<svg xmlns="http://www.w3.org/2000/svg" width="24" height="45.642" viewBox="0 0 24 45.642"><defs><style>.a{fill:none;stroke:#fff;stroke-linecap:round;stroke-width:3px;}.b,.d{fill:#fff;}.c,.d{stroke:none;}</style></defs><g transform="translate(1450 -456.497)"><line class="a" y1="26.126" transform="translate(-1437.5 500.639) rotate(180)"/><g class="b" transform="translate(-1450 456.497)"><path class="c" d="M 22.37879371643066 21.8532600402832 L 12.14583969116211 18.73284149169922 L 12 18.68836975097656 L 11.85416030883789 18.73284149169922 L 1.621206045150757 21.8532600402832 L 9.247150421142578 13.6042308807373 L 9.336560249328613 13.50751113891602 L 9.366720199584961 13.37929058074951 L 12 2.183790922164917 L 14.63327980041504 13.37929058074951 L 14.66343975067139 13.50751113891602 L 14.75284957885742 13.6042308807373 L 22.37879371643066 21.8532600402832 Z"/><path class="d" d="M 12 4.367582321166992 L 9.853440284729004 13.49377059936523 L 9.793120384216309 13.75020027160645 L 9.614299774169922 13.94364070892334 L 3.242399215698242 20.8361644744873 L 11.70831966400146 18.25458145141602 L 12 18.16564178466797 L 12.29168033599854 18.25458145141602 L 20.75760078430176 20.8361644744873 L 14.38570022583008 13.94364070892334 L 14.20687961578369 13.75020027160645 L 14.146559715271 13.49377059936523 L 12 4.367582321166992 M 12 0 L 15.11999988555908 13.26481056213379 L 24 22.870361328125 L 12 19.21110153198242 L 0 22.870361328125 L 8.880000114440918 13.26481056213379 L 12 0 Z"/></g></g></svg>